# Auto-generated Smooth Shape 5 OBJ with Physics Normals
v 1.500000 5.175000 0.000000
v -1.500000 5.175000 0.000000
v -1.500000 4.825000 0.000000
v 1.500000 4.825000 0.000000
v 1.500000 5.175000 1.000000
v -1.500000 5.175000 1.000000
v -1.500000 4.825000 1.000000
v 1.500000 4.825000 1.000000
v -1.325000 5.175000 0.000000
v -1.675000 5.175000 0.000000
v -1.675000 1.825000 0.000000
v -1.325000 1.825000 0.000000
v -1.325000 5.175000 1.000000
v -1.675000 5.175000 1.000000
v -1.675000 1.825000 1.000000
v -1.325000 1.825000 1.000000
v 0.200000 2.175000 0.000000
v -1.500000 2.175000 0.000000
v -1.500000 1.825000 0.000000
v 0.200000 1.825000 0.000000
v 0.200000 2.175000 1.000000
v -1.500000 2.175000 1.000000
v -1.500000 1.825000 1.000000
v 0.200000 1.825000 1.000000
v -0.059500 1.825000 0.000000
v 0.059500 1.825000 0.000000
v 0.059500 2.175000 0.000000
v -0.059500 2.175000 0.000000
v -0.059500 1.825000 1.000000
v 0.059500 1.825000 1.000000
v 0.059500 2.175000 1.000000
v -0.059500 2.175000 1.000000
v 0.012919 1.825924 0.000000
v 0.131826 1.821205 0.000000
v 0.145705 2.170930 0.000000
v 0.026799 2.175649 0.000000
v 0.012919 1.825924 1.000000
v 0.131826 1.821205 1.000000
v 0.145705 2.170930 1.000000
v 0.026799 2.175649 1.000000
v 0.085318 1.823975 0.000000
v 0.203944 1.814545 0.000000
v 0.231681 2.163444 0.000000
v 0.113056 2.172874 0.000000
v 0.085318 1.823975 1.000000
v 0.203944 1.814545 1.000000
v 0.231681 2.163444 1.000000
v 0.113056 2.172874 1.000000
v 0.157583 1.819157 0.000000
v 0.275741 1.805030 0.000000
v 0.317293 2.152554 0.000000
v 0.199135 2.166682 0.000000
v 0.157583 1.819157 1.000000
v 0.275741 1.805030 1.000000
v 0.317293 2.152554 1.000000
v 0.199135 2.166682 1.000000
v 0.229600 1.811477 0.000000
v 0.347105 1.792675 0.000000
v 0.402406 2.138279 0.000000
v 0.284901 2.157081 0.000000
v 0.229600 1.811477 1.000000
v 0.347105 1.792675 1.000000
v 0.402406 2.138279 1.000000
v 0.284901 2.157081 1.000000
v 0.301256 1.800947 0.000000
v 0.417923 1.777500 0.000000
v 0.486885 2.120639 0.000000
v 0.370218 2.144086 0.000000
v 0.301256 1.800947 1.000000
v 0.417923 1.777500 1.000000
v 0.486885 2.120639 1.000000
v 0.370218 2.144086 1.000000
v 0.372437 1.787584 0.000000
v 0.488083 1.759528 0.000000
v 0.570598 2.099663 0.000000
v 0.454953 2.127718 0.000000
v 0.372437 1.787584 1.000000
v 0.488083 1.759528 1.000000
v 0.570598 2.099663 1.000000
v 0.454953 2.127718 1.000000
v 0.443033 1.771408 0.000000
v 0.557475 1.738789 0.000000
v 0.653414 2.075383 0.000000
v 0.538972 2.108002 0.000000
v 0.443033 1.771408 1.000000
v 0.557475 1.738789 1.000000
v 0.653414 2.075383 1.000000
v 0.538972 2.108002 1.000000
v 0.512932 1.752446 0.000000
v 0.625990 1.715314 0.000000
v 0.735202 2.047839 0.000000
v 0.622144 2.084971 0.000000
v 0.512932 1.752446 1.000000
v 0.625990 1.715314 1.000000
v 0.735202 2.047839 1.000000
v 0.622144 2.084971 1.000000
v 0.582024 1.730726 0.000000
v 0.693521 1.689140 0.000000
v 0.815833 2.017073 0.000000
v 0.704336 2.058659 0.000000
v 0.582024 1.730726 1.000000
v 0.693521 1.689140 1.000000
v 0.815833 2.017073 1.000000
v 0.704336 2.058659 1.000000
v 0.650200 1.706284 0.000000
v 0.759960 1.660309 0.000000
v 0.895181 1.983133 0.000000
v 0.785421 2.029108 0.000000
v 0.650200 1.706284 1.000000
v 0.759960 1.660309 1.000000
v 0.895181 1.983133 1.000000
v 0.785421 2.029108 1.000000
v 0.717353 1.679157 0.000000
v 0.825204 1.628866 0.000000
v 0.973120 1.946074 0.000000
v 0.865270 1.996365 0.000000
v 0.717353 1.679157 1.000000
v 0.825204 1.628866 1.000000
v 0.973120 1.946074 1.000000
v 0.865270 1.996365 1.000000
v 0.783378 1.649389 0.000000
v 0.889149 1.594860 0.000000
v 1.049528 1.905953 0.000000
v 0.943757 1.960482 0.000000
v 0.783378 1.649389 1.000000
v 0.889149 1.594860 1.000000
v 1.049528 1.905953 1.000000
v 0.943757 1.960482 1.000000
v 0.848170 1.617026 0.000000
v 0.951696 1.558345 0.000000
v 1.124285 1.862833 0.000000
v 1.020760 1.921514 0.000000
v 0.848170 1.617026 1.000000
v 0.951696 1.558345 1.000000
v 1.124285 1.862833 1.000000
v 1.020760 1.921514 1.000000
v 0.911628 1.582119 0.000000
v 1.012745 1.519379 0.000000
v 1.197274 1.816783 0.000000
v 1.096157 1.879523 0.000000
v 0.911628 1.582119 1.000000
v 1.012745 1.519379 1.000000
v 1.197274 1.816783 1.000000
v 1.096157 1.879523 1.000000
v 0.973652 1.544723 0.000000
v 1.072201 1.478022 0.000000
v 1.268379 1.767875 0.000000
v 1.169829 1.834575 0.000000
v 0.973652 1.544723 1.000000
v 1.072201 1.478022 1.000000
v 1.268379 1.767875 1.000000
v 1.169829 1.834575 1.000000
v 1.034144 1.504896 0.000000
v 1.129970 1.434340 0.000000
v 1.337488 1.716185 0.000000
v 1.241661 1.786741 0.000000
v 1.034144 1.504896 1.000000
v 1.129970 1.434340 1.000000
v 1.337488 1.716185 1.000000
v 1.241661 1.786741 1.000000
v 1.093008 1.462702 0.000000
v 1.185962 1.388402 0.000000
v 1.404493 1.661795 0.000000
v 1.311540 1.736096 0.000000
v 1.093008 1.462702 1.000000
v 1.185962 1.388402 1.000000
v 1.404493 1.661795 1.000000
v 1.311540 1.736096 1.000000
v 1.150154 1.418207 0.000000
v 1.240088 1.340279 0.000000
v 1.469289 1.604791 0.000000
v 1.379355 1.682719 0.000000
v 1.150154 1.418207 1.000000
v 1.240088 1.340279 1.000000
v 1.469289 1.604791 1.000000
v 1.379355 1.682719 1.000000
v 1.205490 1.371481 0.000000
v 1.292263 1.290047 0.000000
v 1.531773 1.545262 0.000000
v 1.445000 1.626696 0.000000
v 1.205490 1.371481 1.000000
v 1.292263 1.290047 1.000000
v 1.531773 1.545262 1.000000
v 1.445000 1.626696 1.000000
v 1.258929 1.322597 0.000000
v 1.342405 1.237786 0.000000
v 1.591847 1.483303 0.000000
v 1.508372 1.568113 0.000000
v 1.258929 1.322597 1.000000
v 1.342405 1.237786 1.000000
v 1.591847 1.483303 1.000000
v 1.508372 1.568113 1.000000
v 1.310388 1.271632 0.000000
v 1.390434 1.183578 0.000000
v 1.649417 1.419009 0.000000
v 1.569371 1.507063 0.000000
v 1.310388 1.271632 1.000000
v 1.390434 1.183578 1.000000
v 1.649417 1.419009 1.000000
v 1.569371 1.507063 1.000000
v 1.359785 1.218667 0.000000
v 1.436277 1.127508 0.000000
v 1.704392 1.352484 0.000000
v 1.627901 1.443643 0.000000
v 1.359785 1.218667 1.000000
v 1.436277 1.127508 1.000000
v 1.704392 1.352484 1.000000
v 1.627901 1.443643 1.000000
v 1.407043 1.163784 0.000000
v 1.479860 1.069664 0.000000
v 1.756686 1.283830 0.000000
v 1.683870 1.377951 0.000000
v 1.407043 1.163784 1.000000
v 1.479860 1.069664 1.000000
v 1.756686 1.283830 1.000000
v 1.683870 1.377951 1.000000
v 1.452088 1.107071 0.000000
v 1.521114 1.010137 0.000000
v 1.806216 1.213157 0.000000
v 1.737189 1.310091 0.000000
v 1.452088 1.107071 1.000000
v 1.521114 1.010137 1.000000
v 1.806216 1.213157 1.000000
v 1.737189 1.310091 1.000000
v 1.494848 1.048616 0.000000
v 1.559976 0.949021 0.000000
v 1.852904 1.140575 0.000000
v 1.787776 1.240170 0.000000
v 1.494848 1.048616 1.000000
v 1.559976 0.949021 1.000000
v 1.852904 1.140575 1.000000
v 1.787776 1.240170 1.000000
v 1.535256 0.988511 0.000000
v 1.596383 0.886411 0.000000
v 1.896678 1.066198 0.000000
v 1.835550 1.168298 0.000000
v 1.535256 0.988511 1.000000
v 1.596383 0.886411 1.000000
v 1.896678 1.066198 1.000000
v 1.835550 1.168298 1.000000
v 1.573249 0.926851 0.000000
v 1.630279 0.822408 0.000000
v 1.937467 0.990145 0.000000
v 1.880437 1.094588 0.000000
v 1.573249 0.926851 1.000000
v 1.630279 0.822408 1.000000
v 1.937467 0.990145 1.000000
v 1.880437 1.094588 1.000000
v 1.608767 0.863733 0.000000
v 1.661611 0.757110 0.000000
v 1.975208 0.912533 0.000000
v 1.922365 1.019156 0.000000
v 1.608767 0.863733 1.000000
v 1.661611 0.757110 1.000000
v 1.975208 0.912533 1.000000
v 1.922365 1.019156 1.000000
v 1.641754 0.799256 0.000000
v 1.690328 0.690621 0.000000
v 2.009842 0.833486 0.000000
v 1.961268 0.942121 0.000000
v 1.641754 0.799256 1.000000
v 1.690328 0.690621 1.000000
v 2.009842 0.833486 1.000000
v 1.961268 0.942121 1.000000
v 1.672158 0.733522 0.000000
v 1.716385 0.623046 0.000000
v 2.041314 0.753128 0.000000
v 1.997086 0.863604 0.000000
v 1.672158 0.733522 1.000000
v 1.716385 0.623046 1.000000
v 2.041314 0.753128 1.000000
v 1.997086 0.863604 1.000000
v 1.699931 0.666633 0.000000
v 1.739743 0.554491 0.000000
v 2.069575 0.671585 0.000000
v 2.029763 0.783727 0.000000
v 1.699931 0.666633 1.000000
v 1.739743 0.554491 1.000000
v 2.069575 0.671585 1.000000
v 2.029763 0.783727 1.000000
v 1.725030 0.598696 0.000000
v 1.760363 0.485063 0.000000
v 2.094579 0.588985 0.000000
v 2.059246 0.702618 0.000000
v 1.725030 0.598696 1.000000
v 1.760363 0.485063 1.000000
v 2.094579 0.588985 1.000000
v 2.059246 0.702618 1.000000
v 1.747415 0.529817 0.000000
v 1.778214 0.414872 0.000000
v 2.116288 0.505459 0.000000
v 2.085489 0.620404 0.000000
v 1.747415 0.529817 1.000000
v 1.778214 0.414872 1.000000
v 2.116288 0.505459 1.000000
v 2.085489 0.620404 1.000000
v 1.767051 0.460105 0.000000
v 1.793268 0.344029 0.000000
v 2.134668 0.421137 0.000000
v 2.108451 0.537213 0.000000
v 1.767051 0.460105 1.000000
v 1.793268 0.344029 1.000000
v 2.134668 0.421137 1.000000
v 2.108451 0.537213 1.000000
v 1.783907 0.389668 0.000000
v 1.805500 0.272644 0.000000
v 2.149690 0.336153 0.000000
v 2.128097 0.453178 0.000000
v 1.783907 0.389668 1.000000
v 1.805500 0.272644 1.000000
v 2.149690 0.336153 1.000000
v 2.128097 0.453178 1.000000
v 1.797956 0.318619 0.000000
v 1.814892 0.200830 0.000000
v 2.161329 0.250641 0.000000
v 2.144394 0.368429 0.000000
v 1.797956 0.318619 1.000000
v 1.814892 0.200830 1.000000
v 2.161329 0.250641 1.000000
v 2.144394 0.368429 1.000000
v 1.809177 0.247068 0.000000
v 1.821428 0.128701 0.000000
v 2.169569 0.164733 0.000000
v 2.157318 0.283101 0.000000
v 1.809177 0.247068 1.000000
v 1.821428 0.128701 1.000000
v 2.169569 0.164733 1.000000
v 2.157318 0.283101 1.000000
v 1.817552 0.175129 0.000000
v 1.825099 0.056369 0.000000
v 2.174395 0.078567 0.000000
v 2.166847 0.197327 0.000000
v 1.817552 0.175129 1.000000
v 1.825099 0.056369 1.000000
v 2.174395 0.078567 1.000000
v 2.166847 0.197327 1.000000
v 1.823067 0.102914 0.000000
v 1.825899 -0.016052 0.000000
v 2.175800 -0.007723 0.000000
v 2.172968 0.111243 0.000000
v 1.823067 0.102914 1.000000
v 1.825899 -0.016052 1.000000
v 2.175800 -0.007723 1.000000
v 2.172968 0.111243 1.000000
v 1.825714 0.030537 0.000000
v 1.823826 -0.088448 0.000000
v 2.173782 -0.094001 0.000000
v 2.175670 0.024984 0.000000
v 1.825714 0.030537 1.000000
v 1.823826 -0.088448 1.000000
v 2.173782 -0.094001 1.000000
v 2.175670 0.024984 1.000000
v 1.825489 -0.041888 0.000000
v 1.818884 -0.160704 0.000000
v 2.168345 -0.180131 0.000000
v 2.174950 -0.061315 0.000000
v 1.825489 -0.041888 1.000000
v 1.818884 -0.160704 1.000000
v 2.168345 -0.180131 1.000000
v 2.174950 -0.061315 1.000000
v 1.822392 -0.114247 0.000000
v 1.811080 -0.232708 0.000000
v 2.159496 -0.265977 0.000000
v 2.170807 -0.147516 0.000000
v 1.822392 -0.114247 1.000000
v 1.811080 -0.232708 1.000000
v 2.159496 -0.265977 1.000000
v 2.170807 -0.147516 1.000000
v 1.816428 -0.186426 0.000000
v 1.800428 -0.304345 0.000000
v 2.147249 -0.351405 0.000000
v 2.163250 -0.233486 0.000000
v 1.816428 -0.186426 1.000000
v 1.800428 -0.304345 1.000000
v 2.147249 -0.351405 1.000000
v 2.163250 -0.233486 1.000000
v 1.807606 -0.258312 0.000000
v 1.786942 -0.375504 0.000000
v 2.131625 -0.436281 0.000000
v 2.152289 -0.319089 0.000000
v 1.807606 -0.258312 1.000000
v 1.786942 -0.375504 1.000000
v 2.131625 -0.436281 1.000000
v 2.152289 -0.319089 1.000000
v 1.795941 -0.329792 0.000000
v 1.770645 -0.446072 0.000000
v 2.112647 -0.520470 0.000000
v 2.137942 -0.404189 0.000000
v 1.795941 -0.329792 1.000000
v 1.770645 -0.446072 1.000000
v 2.112647 -0.520470 1.000000
v 2.137942 -0.404189 1.000000
v 1.781450 -0.400752 0.000000
v 1.751563 -0.515938 0.000000
v 2.090345 -0.603840 0.000000
v 2.120232 -0.488654 0.000000
v 1.781450 -0.400752 1.000000
v 1.751563 -0.515938 1.000000
v 2.090345 -0.603840 1.000000
v 2.120232 -0.488654 1.000000
v 1.764156 -0.471083 0.000000
v 1.729725 -0.584992 0.000000
v 2.064755 -0.686260 0.000000
v 2.099186 -0.572350 0.000000
v 1.764156 -0.471083 1.000000
v 1.729725 -0.584992 1.000000
v 2.064755 -0.686260 1.000000
v 2.099186 -0.572350 1.000000
v 1.744087 -0.540672 0.000000
v 1.705166 -0.653126 0.000000
v 2.035916 -0.767600 0.000000
v 2.074837 -0.655145 0.000000
v 1.744087 -0.540672 1.000000
v 1.705166 -0.653126 1.000000
v 2.035916 -0.767600 1.000000
v 2.074837 -0.655145 1.000000
v 1.721274 -0.609410 0.000000
v 1.677924 -0.720233 0.000000
v 2.003875 -0.847733 0.000000
v 2.047225 -0.736910 0.000000
v 1.721274 -0.609410 1.000000
v 1.677924 -0.720233 1.000000
v 2.003875 -0.847733 1.000000
v 2.047225 -0.736910 1.000000
v 1.695753 -0.677190 0.000000
v 1.648043 -0.786207 0.000000
v 1.968681 -0.926532 0.000000
v 2.016391 -0.817516 0.000000
v 1.695753 -0.677190 1.000000
v 1.648043 -0.786207 1.000000
v 1.968681 -0.926532 1.000000
v 2.016391 -0.817516 1.000000
v 1.667565 -0.743904 0.000000
v 1.615568 -0.850943 0.000000
v 1.930389 -1.003874 0.000000
v 1.982386 -0.896835 0.000000
v 1.667565 -0.743904 1.000000
v 1.615568 -0.850943 1.000000
v 1.930389 -1.003874 1.000000
v 1.982386 -0.896835 1.000000
v 1.636752 -0.809448 0.000000
v 1.580552 -0.914341 0.000000
v 1.889061 -1.079636 0.000000
v 1.945261 -0.974743 0.000000
v 1.636752 -0.809448 1.000000
v 1.580552 -0.914341 1.000000
v 1.889061 -1.079636 1.000000
v 1.945261 -0.974743 1.000000
v 1.603365 -0.873719 0.000000
v 1.543050 -0.976300 0.000000
v 1.844761 -1.153700 0.000000
v 1.905076 -1.051118 0.000000
v 1.603365 -0.873719 1.000000
v 1.543050 -0.976300 1.000000
v 1.844761 -1.153700 1.000000
v 1.905076 -1.051118 1.000000
v 1.567456 -0.936615 0.000000
v 1.503120 -1.036724 0.000000
v 1.797558 -1.225948 0.000000
v 1.861894 -1.125839 0.000000
v 1.567456 -0.936615 1.000000
v 1.503120 -1.036724 1.000000
v 1.797558 -1.225948 1.000000
v 1.861894 -1.125839 1.000000
v 1.529080 -0.998038 0.000000
v 1.460825 -1.095516 0.000000
v 1.747528 -1.296268 0.000000
v 1.815783 -1.198789 0.000000
v 1.529080 -0.998038 1.000000
v 1.460825 -1.095516 1.000000
v 1.747528 -1.296268 1.000000
v 1.815783 -1.198789 1.000000
v 1.488299 -1.057890 0.000000
v 1.416232 -1.152585 0.000000
v 1.694748 -1.364549 0.000000
v 1.766816 -1.269853 0.000000
v 1.488299 -1.057890 1.000000
v 1.416232 -1.152585 1.000000
v 1.694748 -1.364549 1.000000
v 1.766816 -1.269853 1.000000
v 1.445176 -1.116078 0.000000
v 1.369411 -1.207841 0.000000
v 1.639302 -1.430683 0.000000
v 1.715068 -1.338920 0.000000
v 1.445176 -1.116078 1.000000
v 1.369411 -1.207841 1.000000
v 1.639302 -1.430683 1.000000
v 1.715068 -1.338920 1.000000
v 1.399780 -1.172510 0.000000
v 1.320435 -1.261197 0.000000
v 1.581278 -1.494566 0.000000
v 1.660623 -1.405879 0.000000
v 1.399780 -1.172510 1.000000
v 1.320435 -1.261197 1.000000
v 1.581278 -1.494566 1.000000
v 1.660623 -1.405879 1.000000
v 1.352182 -1.227098 0.000000
v 1.269382 -1.312568 0.000000
v 1.520765 -1.556097 0.000000
v 1.603565 -1.470628 0.000000
v 1.352182 -1.227098 1.000000
v 1.269382 -1.312568 1.000000
v 1.520765 -1.556097 1.000000
v 1.603565 -1.470628 1.000000
v 1.302456 -1.279755 0.000000
v 1.216332 -1.361874 0.000000
v 1.457860 -1.615181 0.000000
v 1.543984 -1.533062 0.000000
v 1.302456 -1.279755 1.000000
v 1.216332 -1.361874 1.000000
v 1.457860 -1.615181 1.000000
v 1.543984 -1.533062 1.000000
v 1.250682 -1.330399 0.000000
v 1.161369 -1.409038 0.000000
v 1.392661 -1.671724 0.000000
v 1.481974 -1.593084 0.000000
v 1.250682 -1.330399 1.000000
v 1.161369 -1.409038 1.000000
v 1.392661 -1.671724 1.000000
v 1.481974 -1.593084 1.000000
v 1.196939 -1.378950 0.000000
v 1.104578 -1.453985 0.000000
v 1.325271 -1.725636 0.000000
v 1.417633 -1.650601 0.000000
v 1.196939 -1.378950 1.000000
v 1.104578 -1.453985 1.000000
v 1.325271 -1.725636 1.000000
v 1.417633 -1.650601 1.000000
v 1.141314 -1.425331 0.000000
v 1.046050 -1.496645 0.000000
v 1.255797 -1.776834 0.000000
v 1.351061 -1.705520 0.000000
v 1.141314 -1.425331 1.000000
v 1.046050 -1.496645 1.000000
v 1.255797 -1.776834 1.000000
v 1.351061 -1.705520 1.000000
v 1.083893 -1.469470 0.000000
v 0.985876 -1.536950 0.000000
v 1.184347 -1.825237 0.000000
v 1.282364 -1.757757 0.000000
v 1.083893 -1.469470 1.000000
v 0.985876 -1.536950 1.000000
v 1.184347 -1.825237 1.000000
v 1.282364 -1.757757 1.000000
v 1.024767 -1.511297 0.000000
v 0.924151 -1.574837 0.000000
v 1.111033 -1.870767 0.000000
v 1.211649 -1.807228 0.000000
v 1.024767 -1.511297 1.000000
v 0.924151 -1.574837 1.000000
v 1.111033 -1.870767 1.000000
v 1.211649 -1.807228 1.000000
v 0.964028 -1.550746 0.000000
v 0.860972 -1.610246 0.000000
v 1.035972 -1.913355 0.000000
v 1.139028 -1.853855 0.000000
v 0.964028 -1.550746 1.000000
v 0.860972 -1.610246 1.000000
v 1.035972 -1.913355 1.000000
v 1.139028 -1.853855 1.000000
v 0.901773 -1.587756 0.000000
v 0.796438 -1.643122 0.000000
v 0.959280 -1.952933 0.000000
v 1.064616 -1.897567 0.000000
v 0.901773 -1.587756 1.000000
v 0.796438 -1.643122 1.000000
v 0.959280 -1.952933 1.000000
v 1.064616 -1.897567 1.000000
v 0.838100 -1.622268 0.000000
v 0.730652 -1.673414 0.000000
v 0.881080 -1.989438 0.000000
v 0.988528 -1.938292 0.000000
v 0.838100 -1.622268 1.000000
v 0.730652 -1.673414 1.000000
v 0.881080 -1.989438 1.000000
v 0.988528 -1.938292 1.000000
v 0.773108 -1.654228 0.000000
v 0.663716 -1.701072 0.000000
v 0.801493 -2.022813 0.000000
v 0.910885 -1.975969 0.000000
v 0.773108 -1.654228 1.000000
v 0.663716 -1.701072 1.000000
v 0.801493 -2.022813 1.000000
v 0.910885 -1.975969 1.000000
v 0.706899 -1.683585 0.000000
v 0.595736 -1.726055 0.000000
v 0.720646 -2.053006 0.000000
v 0.831809 -2.010537 0.000000
v 0.706899 -1.683585 1.000000
v 0.595736 -1.726055 1.000000
v 0.720646 -2.053006 1.000000
v 0.831809 -2.010537 1.000000
v 0.639578 -1.710294 0.000000
v 0.526818 -1.748321 0.000000
v 0.638665 -2.079969 0.000000
v 0.751425 -2.041942 0.000000
v 0.639578 -1.710294 1.000000
v 0.526818 -1.748321 1.000000
v 0.638665 -2.079969 1.000000
v 0.751425 -2.041942 1.000000
v 0.571252 -1.734312 0.000000
v 0.457072 -1.767838 0.000000
v 0.555679 -2.103660 0.000000
v 0.669858 -2.070134 0.000000
v 0.571252 -1.734312 1.000000
v 0.457072 -1.767838 1.000000
v 0.555679 -2.103660 1.000000
v 0.669858 -2.070134 1.000000
v 0.502026 -1.755601 0.000000
v 0.386607 -1.784573 0.000000
v 0.471818 -2.124042 0.000000
v 0.587237 -2.095070 0.000000
v 0.502026 -1.755601 1.000000
v 0.386607 -1.784573 1.000000
v 0.471818 -2.124042 1.000000
v 0.587237 -2.095070 1.000000
v 0.432011 -1.774128 0.000000
v 0.315534 -1.798500 0.000000
v 0.387216 -2.141081 0.000000
v 0.503693 -2.116709 0.000000
v 0.432011 -1.774128 1.000000
v 0.315534 -1.798500 1.000000
v 0.387216 -2.141081 1.000000
v 0.503693 -2.116709 1.000000
v 0.361316 -1.789865 0.000000
v 0.243964 -1.809599 0.000000
v 0.302004 -2.154753 0.000000
v 0.419356 -2.135019 0.000000
v 0.361316 -1.789865 1.000000
v 0.243964 -1.809599 1.000000
v 0.302004 -2.154753 1.000000
v 0.419356 -2.135019 1.000000
v 0.290052 -1.802785 0.000000
v 0.172010 -1.817850 0.000000
v 0.216317 -2.165034 0.000000
v 0.334360 -2.149969 0.000000
v 0.290052 -1.802785 1.000000
v 0.172010 -1.817850 1.000000
v 0.216317 -2.165034 1.000000
v 0.334360 -2.149969 1.000000
v 0.218333 -1.812870 0.000000
v 0.099786 -1.823241 0.000000
v 0.130290 -2.171909 0.000000
v 0.248837 -2.161538 0.000000
v 0.218333 -1.812870 1.000000
v 0.099786 -1.823241 1.000000
v 0.130290 -2.171909 1.000000
v 0.248837 -2.161538 1.000000
v 0.146269 -1.820102 0.000000
v 0.027405 -1.825764 0.000000
v 0.044058 -2.175368 0.000000
v 0.162923 -2.169705 0.000000
v 0.146269 -1.820102 1.000000
v 0.027405 -1.825764 1.000000
v 0.044058 -2.175368 1.000000
v 0.162923 -2.169705 1.000000
v 0.073976 -1.824471 0.000000
v -0.045020 -1.825415 0.000000
v -0.042243 -2.175404 0.000000
v 0.076753 -2.174460 0.000000
v 0.073976 -1.824471 1.000000
v -0.045020 -1.825415 1.000000
v -0.042243 -2.175404 1.000000
v 0.076753 -2.174460 1.000000
v 0.001566 -1.825969 0.000000
v -0.117373 -1.822193 0.000000
v -0.128478 -2.172017 0.000000
v -0.009538 -2.175793 0.000000
v 0.001566 -1.825969 1.000000
v -0.117373 -1.822193 1.000000
v -0.128478 -2.172017 1.000000
v -0.009538 -2.175793 1.000000
v -0.070846 -1.824595 0.000000
v -0.189542 -1.816105 0.000000
v -0.214511 -2.165214 0.000000
v -0.095814 -2.173703 0.000000
v -0.070846 -1.824595 1.000000
v -0.189542 -1.816105 1.000000
v -0.214511 -2.165214 1.000000
v -0.095814 -2.173703 1.000000
v -0.143146 -1.820350 0.000000
v -0.261413 -1.807160 0.000000
v -0.300206 -2.155004 0.000000
v -0.181940 -2.168194 0.000000
v -0.143146 -1.820350 1.000000
v -0.261413 -1.807160 1.000000
v -0.300206 -2.155004 1.000000
v -0.181940 -2.168194 1.000000
v -0.215222 -1.813241 0.000000
v -0.332872 -1.795372 0.000000
v -0.385429 -2.141404 0.000000
v -0.267779 -2.159273 0.000000
v -0.215222 -1.813241 1.000000
v -0.332872 -1.795372 1.000000
v -0.385429 -2.141404 1.000000
v -0.267779 -2.159273 1.000000
v -0.286959 -1.803280 0.000000
v -0.403808 -1.780759 0.000000
v -0.470046 -2.124434 0.000000
v -0.353197 -2.146955 0.000000
v -0.286959 -1.803280 1.000000
v -0.403808 -1.780759 1.000000
v -0.470046 -2.124434 1.000000
v -0.353197 -2.146955 1.000000
v -0.358244 -1.790482 0.000000
v -0.474109 -1.763345 0.000000
v -0.553923 -2.104123 0.000000
v -0.438059 -2.131260 0.000000
v -0.358244 -1.790482 1.000000
v -0.474109 -1.763345 1.000000
v -0.553923 -2.104123 1.000000
v -0.438059 -2.131260 1.000000
v -0.428966 -1.774867 0.000000
v -0.543663 -1.743157 0.000000
v -0.636929 -2.080502 0.000000
v -0.522232 -2.112212 0.000000
v -0.428966 -1.774867 1.000000
v -0.543663 -1.743157 1.000000
v -0.636929 -2.080502 1.000000
v -0.522232 -2.112212 1.000000
v -0.499013 -1.756460 0.000000
v -0.612362 -1.720226 0.000000
v -0.718933 -2.053607 0.000000
v -0.605584 -2.089841 0.000000
v -0.499013 -1.756460 1.000000
v -0.612362 -1.720226 1.000000
v -0.718933 -2.053607 1.000000
v -0.605584 -2.089841 1.000000
v -0.568275 -1.735289 0.000000
v -0.680098 -1.694589 0.000000
v -0.799805 -2.023481 0.000000
v -0.687982 -2.064182 0.000000
v -0.568275 -1.735289 1.000000
v -0.680098 -1.694589 1.000000
v -0.799805 -2.023481 1.000000
v -0.687982 -2.064182 1.000000
v -0.636643 -1.711389 0.000000
v -0.746764 -1.666286 0.000000
v -0.879420 -1.990172 0.000000
v -0.769299 -2.035275 0.000000
v -0.636643 -1.711389 1.000000
v -0.746764 -1.666286 1.000000
v -0.879420 -1.990172 1.000000
v -0.769299 -2.035275 1.000000
v -0.704009 -1.684796 0.000000
v -0.812255 -1.635361 0.000000
v -0.957651 -1.953732 0.000000
v -0.849405 -2.003167 0.000000
v -0.704009 -1.684796 1.000000
v -0.812255 -1.635361 1.000000
v -0.957651 -1.953732 1.000000
v -0.849405 -2.003167 1.000000
v -0.770268 -1.655552 0.000000
v -0.876469 -1.601864 0.000000
v -1.034375 -1.914219 0.000000
v -0.928174 -1.967907 0.000000
v -0.770268 -1.655552 1.000000
v -0.876469 -1.601864 1.000000
v -1.034375 -1.914219 1.000000
v -0.928174 -1.967907 1.000000
v -0.835315 -1.623704 0.000000
v -0.939303 -1.565846 0.000000
v -1.109472 -1.871694 0.000000
v -1.005484 -1.929551 0.000000
v -0.835315 -1.623704 1.000000
v -0.939303 -1.565846 1.000000
v -1.109472 -1.871694 1.000000
v -1.005484 -1.929551 1.000000
v -0.899048 -1.589301 0.000000
v -1.000660 -1.527366 0.000000
v -1.182823 -1.826224 0.000000
v -1.081212 -1.888160 0.000000
v -0.899048 -1.589301 1.000000
v -1.000660 -1.527366 1.000000
v -1.182823 -1.826224 1.000000
v -1.081212 -1.888160 1.000000
v -0.961366 -1.552398 0.000000
v -1.060442 -1.486482 0.000000
v -1.254314 -1.777881 0.000000
v -1.155238 -1.843798 0.000000
v -0.961366 -1.552398 1.000000
v -1.060442 -1.486482 1.000000
v -1.254314 -1.777881 1.000000
v -1.155238 -1.843798 1.000000
v -1.022172 -1.513053 0.000000
v -1.118556 -1.443259 0.000000
v -1.323831 -1.726741 0.000000
v -1.227448 -1.796535 0.000000
v -1.022172 -1.513053 1.000000
v -1.118556 -1.443259 1.000000
v -1.323831 -1.726741 1.000000
v -1.227448 -1.796535 1.000000
v -1.081370 -1.471327 0.000000
v -1.174910 -1.397767 0.000000
v -1.391266 -1.672885 0.000000
v -1.297726 -1.746446 0.000000
v -1.081370 -1.471327 1.000000
v -1.174910 -1.397767 1.000000
v -1.391266 -1.672885 1.000000
v -1.297726 -1.746446 1.000000
v -1.138867 -1.427287 0.000000
v -1.229416 -1.350075 0.000000
v -1.456512 -1.616397 0.000000
v -1.365962 -1.693609 0.000000
v -1.138867 -1.427287 1.000000
v -1.229416 -1.350075 1.000000
v -1.456512 -1.616397 1.000000
v -1.365962 -1.693609 1.000000
v -1.194572 -1.381001 0.000000
v -1.281988 -1.300259 0.000000
v -1.519466 -1.557366 0.000000
v -1.432050 -1.638108 0.000000
v -1.194572 -1.381001 1.000000
v -1.281988 -1.300259 1.000000
v -1.519466 -1.557366 1.000000
v -1.432050 -1.638108 1.000000
v -1.248397 -1.332543 0.000000
v -1.332543 -1.248397 0.000000
v -1.580030 -1.495884 0.000000
v -1.495884 -1.580030 0.000000
v -1.248397 -1.332543 1.000000
v -1.332543 -1.248397 1.000000
v -1.580030 -1.495884 1.000000
v -1.495884 -1.580030 1.000000
vn 0.942925 0.110008 -0.314308
vn -0.942925 0.110008 -0.314308
vn -0.942925 -0.110008 -0.314308
vn 0.942925 -0.110008 -0.314308
vn 0.942925 0.110008 0.314308
vn -0.942925 0.110008 0.314308
vn -0.942925 -0.110008 0.314308
vn 0.942925 -0.110008 0.314308
vn 0.099614 0.953453 -0.284613
vn -0.099614 0.953453 -0.284613
vn -0.099614 -0.953453 -0.284613
vn 0.099614 -0.953453 -0.284613
vn 0.099614 0.953453 0.284613
vn -0.099614 0.953453 0.284613
vn -0.099614 -0.953453 0.284613
vn 0.099614 -0.953453 0.284613
vn 0.848675 0.174727 -0.499221
vn -0.848675 0.174727 -0.499221
vn -0.848675 -0.174727 -0.499221
vn 0.848675 -0.174727 -0.499221
vn 0.848675 0.174727 0.499221
vn -0.848675 0.174727 0.499221
vn -0.848675 -0.174727 0.499221
vn 0.848675 -0.174727 0.499221
vn -0.111617 -0.328286 -0.937960
vn 0.111617 -0.328286 -0.937960
vn 0.111617 0.328286 -0.937960
vn -0.111617 0.328286 -0.937960
vn -0.111617 -0.328286 0.937960
vn 0.111617 -0.328286 0.937960
vn 0.111617 0.328286 0.937960
vn -0.111617 0.328286 0.937960
vn -0.124548 -0.323602 -0.937960
vn 0.098511 -0.332454 -0.937960
vn 0.124548 0.323602 -0.937960
vn -0.098511 0.332454 -0.937960
vn -0.124548 -0.323602 0.937960
vn 0.098511 -0.332454 0.937960
vn 0.124548 0.323602 0.937960
vn -0.098511 0.332454 0.937960
vn -0.137283 -0.318408 -0.937960
vn 0.085249 -0.336099 -0.937960
vn 0.137283 0.318408 -0.937960
vn -0.085249 0.336099 -0.937960
vn -0.137283 -0.318408 0.937960
vn 0.085249 -0.336099 0.937960
vn 0.137283 0.318408 0.937960
vn -0.085249 0.336099 0.937960
vn -0.149801 -0.312713 -0.937960
vn 0.071854 -0.339216 -0.937960
vn 0.149801 0.312713 -0.937960
vn -0.071854 0.339216 -0.937960
vn -0.149801 -0.312713 0.937960
vn 0.071854 -0.339216 0.937960
vn 0.149801 0.312713 0.937960
vn -0.071854 0.339216 0.937960
vn -0.162085 -0.306527 -0.937960
vn 0.058345 -0.341798 -0.937960
vn 0.162085 0.306527 -0.937960
vn -0.058345 0.341798 -0.937960
vn -0.162085 -0.306527 0.937960
vn 0.058345 -0.341798 0.937960
vn 0.162085 0.306527 0.937960
vn -0.058345 0.341798 0.937960
vn -0.174113 -0.299858 -0.937960
vn 0.044745 -0.343843 -0.937960
vn 0.174113 0.299858 -0.937960
vn -0.044745 0.343843 -0.937960
vn -0.174113 -0.299858 0.937960
vn 0.044745 -0.343843 0.937960
vn 0.174113 0.299858 0.937960
vn -0.044745 0.343843 0.937960
vn -0.185867 -0.292718 -0.937960
vn 0.031074 -0.345347 -0.937960
vn 0.185867 0.292718 -0.937960
vn -0.031074 0.345347 -0.937960
vn -0.185867 -0.292718 0.937960
vn 0.031074 -0.345347 0.937960
vn 0.185867 0.292718 0.937960
vn -0.031074 0.345347 0.937960
vn -0.197329 -0.285117 -0.937960
vn 0.017355 -0.346308 -0.937960
vn 0.197329 0.285117 -0.937960
vn -0.017355 0.346308 -0.937960
vn -0.197329 -0.285117 0.937960
vn 0.017355 -0.346308 0.937960
vn 0.197329 0.285117 0.937960
vn -0.017355 0.346308 0.937960
vn -0.208480 -0.277067 -0.937960
vn 0.003608 -0.346723 -0.937960
vn 0.208480 0.277067 -0.937960
vn -0.003608 0.346723 -0.937960
vn -0.208480 -0.277067 0.937960
vn 0.003608 -0.346723 0.937960
vn 0.208480 0.277067 0.937960
vn -0.003608 0.346723 0.937960
vn -0.219304 -0.268581 -0.937960
vn -0.010145 -0.346594 -0.937960
vn 0.219304 0.268581 -0.937960
vn 0.010145 0.346594 -0.937960
vn -0.219304 -0.268581 0.937960
vn -0.010145 -0.346594 0.937960
vn 0.219304 0.268581 0.937960
vn 0.010145 0.346594 0.937960
vn -0.229782 -0.259673 -0.937960
vn -0.023881 -0.345919 -0.937960
vn 0.229782 0.259673 -0.937960
vn 0.023881 0.345919 -0.937960
vn -0.229782 -0.259673 0.937960
vn -0.023881 -0.345919 0.937960
vn 0.229782 0.259673 0.937960
vn 0.023881 0.345919 0.937960
vn -0.239899 -0.250357 -0.937960
vn -0.037580 -0.344700 -0.937960
vn 0.239899 0.250357 -0.937960
vn 0.037580 0.344700 -0.937960
vn -0.239899 -0.250357 0.937960
vn -0.037580 -0.344700 0.937960
vn 0.239899 0.250357 0.937960
vn 0.037580 0.344700 0.937960
vn -0.249639 -0.240646 -0.937960
vn -0.051220 -0.342938 -0.937960
vn 0.249639 0.240646 -0.937960
vn 0.051220 0.342938 -0.937960
vn -0.249639 -0.240646 0.937960
vn -0.051220 -0.342938 0.937960
vn 0.249639 0.240646 0.937960
vn 0.051220 0.342938 0.937960
vn -0.258985 -0.230557 -0.937960
vn -0.064780 -0.340637 -0.937960
vn 0.258985 0.230557 -0.937960
vn 0.064780 0.340637 -0.937960
vn -0.258985 -0.230557 0.937960
vn -0.064780 -0.340637 0.937960
vn 0.258985 0.230557 0.937960
vn 0.064780 0.340637 0.937960
vn -0.267925 -0.220106 -0.937960
vn -0.078237 -0.337800 -0.937960
vn 0.267925 0.220106 -0.937960
vn 0.078237 0.337800 -0.937960
vn -0.267925 -0.220106 0.937960
vn -0.078237 -0.337800 0.937960
vn 0.267925 0.220106 0.937960
vn 0.078237 0.337800 0.937960
vn -0.276442 -0.209308 -0.937960
vn -0.091571 -0.334432 -0.937960
vn 0.276442 0.209308 -0.937960
vn 0.091571 0.334432 -0.937960
vn -0.276442 -0.209308 0.937960
vn -0.091571 -0.334432 0.937960
vn 0.276442 0.209308 0.937960
vn 0.091571 0.334432 0.937960
vn -0.284525 -0.198180 -0.937960
vn -0.104762 -0.330538 -0.937960
vn 0.284525 0.198180 -0.937960
vn 0.104762 0.330538 -0.937960
vn -0.284525 -0.198180 0.937960
vn -0.104762 -0.330538 0.937960
vn 0.284525 0.198180 0.937960
vn 0.104762 0.330538 0.937960
vn -0.292161 -0.186741 -0.937960
vn -0.117787 -0.326123 -0.937960
vn 0.292161 0.186741 -0.937960
vn 0.117787 0.326123 -0.937960
vn -0.292161 -0.186741 0.937960
vn -0.117787 -0.326123 0.937960
vn 0.292161 0.186741 0.937960
vn 0.117787 0.326123 0.937960
vn -0.299336 -0.175009 -0.937960
vn -0.130627 -0.321196 -0.937960
vn 0.299336 0.175009 -0.937960
vn 0.130627 0.321196 -0.937960
vn -0.299336 -0.175009 0.937960
vn -0.130627 -0.321196 0.937960
vn 0.299336 0.175009 0.937960
vn 0.130627 0.321196 0.937960
vn -0.306041 -0.163000 -0.937960
vn -0.143262 -0.315763 -0.937960
vn 0.306041 0.163000 -0.937960
vn 0.143262 0.315763 -0.937960
vn -0.306041 -0.163000 0.937960
vn -0.143262 -0.315763 0.937960
vn 0.306041 0.163000 0.937960
vn 0.143262 0.315763 0.937960
vn -0.312264 -0.150736 -0.937960
vn -0.155671 -0.309833 -0.937960
vn 0.312264 0.150736 -0.937960
vn 0.155671 0.309833 -0.937960
vn -0.312264 -0.150736 0.937960
vn -0.155671 -0.309833 0.937960
vn 0.312264 0.150736 0.937960
vn 0.155671 0.309833 0.937960
vn -0.317996 -0.138234 -0.937960
vn -0.167835 -0.303416 -0.937960
vn 0.317996 0.138234 -0.937960
vn 0.167835 0.303416 -0.937960
vn -0.317996 -0.138234 0.937960
vn -0.167835 -0.303416 0.937960
vn 0.317996 0.138234 0.937960
vn 0.167835 0.303416 0.937960
vn -0.323228 -0.125515 -0.937960
vn -0.179736 -0.296522 -0.937960
vn 0.323228 0.125515 -0.937960
vn 0.179736 0.296522 -0.937960
vn -0.323228 -0.125515 0.937960
vn -0.179736 -0.296522 0.937960
vn 0.323228 0.125515 0.937960
vn 0.179736 0.296522 0.937960
vn -0.327951 -0.112598 -0.937960
vn -0.191353 -0.289161 -0.937960
vn 0.327951 0.112598 -0.937960
vn 0.191353 0.289161 -0.937960
vn -0.327951 -0.112598 0.937960
vn -0.191353 -0.289161 0.937960
vn 0.327951 0.112598 0.937960
vn 0.191353 0.289161 0.937960
vn -0.332158 -0.099504 -0.937960
vn -0.202670 -0.281345 -0.937960
vn 0.332158 0.099504 -0.937960
vn 0.202670 0.281345 -0.937960
vn -0.332158 -0.099504 0.937960
vn -0.202670 -0.281345 0.937960
vn 0.332158 0.099504 0.937960
vn 0.202670 0.281345 0.937960
vn -0.335843 -0.086254 -0.937960
vn -0.213667 -0.273087 -0.937960
vn 0.335843 0.086254 -0.937960
vn 0.213667 0.273087 -0.937960
vn -0.335843 -0.086254 0.937960
vn -0.213667 -0.273087 0.937960
vn 0.335843 0.086254 0.937960
vn 0.213667 0.273087 0.937960
vn -0.338999 -0.072868 -0.937960
vn -0.224329 -0.264399 -0.937960
vn 0.338999 0.072868 -0.937960
vn 0.224329 0.264399 -0.937960
vn -0.338999 -0.072868 0.937960
vn -0.224329 -0.264399 0.937960
vn 0.338999 0.072868 0.937960
vn 0.224329 0.264399 0.937960
vn -0.341622 -0.059367 -0.937960
vn -0.234638 -0.255295 -0.937960
vn 0.341622 0.059367 -0.937960
vn 0.234638 0.255295 -0.937960
vn -0.341622 -0.059367 0.937960
vn -0.234638 -0.255295 0.937960
vn 0.341622 0.059367 0.937960
vn 0.234638 0.255295 0.937960
vn -0.343708 -0.045773 -0.937960
vn -0.244577 -0.245789 -0.937960
vn 0.343708 0.045773 -0.937960
vn 0.244577 0.245789 -0.937960
vn -0.343708 -0.045773 0.937960
vn -0.244577 -0.245789 0.937960
vn 0.343708 0.045773 0.937960
vn 0.244577 0.245789 0.937960
vn -0.345253 -0.032107 -0.937960
vn -0.254132 -0.235897 -0.937960
vn 0.345253 0.032107 -0.937960
vn 0.254132 0.235897 -0.937960
vn -0.345253 -0.032107 0.937960
vn -0.254132 -0.235897 0.937960
vn 0.345253 0.032107 0.937960
vn 0.254132 0.235897 0.937960
vn -0.346254 -0.018390 -0.937960
vn -0.263286 -0.225633 -0.937960
vn 0.346254 0.018390 -0.937960
vn 0.263286 0.225633 -0.937960
vn -0.346254 -0.018390 0.937960
vn -0.263286 -0.225633 0.937960
vn 0.346254 0.018390 0.937960
vn 0.263286 0.225633 0.937960
vn -0.346711 -0.004644 -0.937960
vn -0.272027 -0.215015 -0.937960
vn 0.346711 0.004644 -0.937960
vn 0.272027 0.215015 -0.937960
vn -0.346711 -0.004644 0.937960
vn -0.272027 -0.215015 0.937960
vn 0.346711 0.004644 0.937960
vn 0.272027 0.215015 0.937960
vn -0.346623 0.009109 -0.937960
vn -0.280340 -0.204058 -0.937960
vn 0.346623 -0.009109 -0.937960
vn 0.280340 0.204058 -0.937960
vn -0.346623 0.009109 0.937960
vn -0.280340 -0.204058 0.937960
vn 0.346623 -0.009109 0.937960
vn 0.280340 0.204058 0.937960
vn -0.345989 0.022847 -0.937960
vn -0.288211 -0.192780 -0.937960
vn 0.345989 -0.022847 -0.937960
vn 0.288211 0.192780 -0.937960
vn -0.345989 0.022847 0.937960
vn -0.288211 -0.192780 0.937960
vn 0.345989 -0.022847 0.937960
vn 0.288211 0.192780 0.937960
vn -0.344811 0.036550 -0.937960
vn -0.295630 -0.181199 -0.937960
vn 0.344811 -0.036550 -0.937960
vn 0.295630 0.181199 -0.937960
vn -0.344811 0.036550 0.937960
vn -0.295630 -0.181199 0.937960
vn 0.344811 -0.036550 0.937960
vn 0.295630 0.181199 0.937960
vn -0.343090 0.050195 -0.937960
vn -0.302583 -0.169333 -0.937960
vn 0.343090 -0.050195 -0.937960
vn 0.302583 0.169333 -0.937960
vn -0.343090 0.050195 0.937960
vn -0.302583 -0.169333 0.937960
vn 0.343090 -0.050195 0.937960
vn 0.302583 0.169333 0.937960
vn -0.340829 0.063761 -0.937960
vn -0.309060 -0.157201 -0.937960
vn 0.340829 -0.063761 -0.937960
vn 0.309060 0.157201 -0.937960
vn -0.340829 0.063761 0.937960
vn -0.309060 -0.157201 0.937960
vn 0.340829 -0.063761 0.937960
vn 0.309060 0.157201 0.937960
vn -0.338033 0.077227 -0.937960
vn -0.315051 -0.144821 -0.937960
vn 0.338033 -0.077227 -0.937960
vn 0.315051 0.144821 -0.937960
vn -0.338033 0.077227 0.937960
vn -0.315051 -0.144821 0.937960
vn 0.338033 -0.077227 0.937960
vn 0.315051 0.144821 0.937960
vn -0.334704 0.090571 -0.937960
vn -0.320546 -0.132214 -0.937960
vn 0.334704 -0.090571 -0.937960
vn 0.320546 0.132214 -0.937960
vn -0.334704 0.090571 0.937960
vn -0.320546 -0.132214 0.937960
vn 0.334704 -0.090571 0.937960
vn 0.320546 0.132214 0.937960
vn -0.330849 0.103773 -0.937960
vn -0.325537 -0.119398 -0.937960
vn 0.330849 -0.103773 -0.937960
vn 0.325537 0.119398 -0.937960
vn -0.330849 0.103773 0.937960
vn -0.325537 -0.119398 0.937960
vn 0.330849 -0.103773 0.937960
vn 0.325537 0.119398 0.937960
vn -0.326474 0.116812 -0.937960
vn -0.330016 -0.106394 -0.937960
vn 0.326474 -0.116812 -0.937960
vn 0.330016 0.106394 -0.937960
vn -0.326474 0.116812 0.937960
vn -0.330016 -0.106394 0.937960
vn 0.326474 -0.116812 0.937960
vn 0.330016 0.106394 0.937960
vn -0.321585 0.129666 -0.937960
vn -0.333975 -0.093224 -0.937960
vn 0.321585 -0.129666 -0.937960
vn 0.333975 0.093224 -0.937960
vn -0.321585 0.129666 0.937960
vn -0.333975 -0.093224 0.937960
vn 0.321585 -0.129666 0.937960
vn 0.333975 0.093224 0.937960
vn -0.316190 0.142317 -0.937960
vn -0.337410 -0.079906 -0.937960
vn 0.316190 -0.142317 -0.937960
vn 0.337410 0.079906 -0.937960
vn -0.316190 0.142317 0.937960
vn -0.337410 -0.079906 0.937960
vn 0.316190 -0.142317 0.937960
vn 0.337410 0.079906 0.937960
vn -0.310297 0.154744 -0.937960
vn -0.340313 -0.066463 -0.937960
vn 0.310297 -0.154744 -0.937960
vn 0.340313 0.066463 -0.937960
vn -0.310297 0.154744 0.937960
vn -0.340313 -0.066463 0.937960
vn 0.310297 -0.154744 0.937960
vn 0.340313 0.066463 0.937960
vn -0.303917 0.166928 -0.937960
vn -0.342681 -0.052915 -0.937960
vn 0.303917 -0.166928 -0.937960
vn 0.342681 0.052915 -0.937960
vn -0.303917 0.166928 0.937960
vn -0.342681 -0.052915 0.937960
vn 0.303917 -0.166928 0.937960
vn 0.342681 0.052915 0.937960
vn -0.297058 0.178848 -0.937960
vn -0.344510 -0.039284 -0.937960
vn 0.297058 -0.178848 -0.937960
vn 0.344510 0.039284 -0.937960
vn -0.297058 0.178848 0.937960
vn -0.344510 -0.039284 0.937960
vn 0.297058 -0.178848 0.937960
vn 0.344510 0.039284 0.937960
vn -0.289732 0.190488 -0.937960
vn -0.345797 -0.025591 -0.937960
vn 0.289732 -0.190488 -0.937960
vn 0.345797 0.025591 -0.937960
vn -0.289732 0.190488 0.937960
vn -0.345797 -0.025591 0.937960
vn 0.289732 -0.190488 0.937960
vn 0.345797 0.025591 0.937960
vn -0.281950 0.201828 -0.937960
vn -0.346539 -0.011858 -0.937960
vn 0.281950 -0.201828 -0.937960
vn 0.346539 0.011858 -0.937960
vn -0.281950 0.201828 0.937960
vn -0.346539 -0.011858 0.937960
vn 0.281950 -0.201828 0.937960
vn 0.346539 0.011858 0.937960
vn -0.273724 0.212850 -0.937960
vn -0.346737 0.001894 -0.937960
vn 0.273724 -0.212850 -0.937960
vn 0.346737 -0.001894 -0.937960
vn -0.273724 0.212850 0.937960
vn -0.346737 0.001894 0.937960
vn 0.273724 -0.212850 0.937960
vn 0.346737 -0.001894 0.937960
vn -0.265068 0.223538 -0.937960
vn -0.346389 0.015642 -0.937960
vn 0.265068 -0.223538 -0.937960
vn 0.346389 -0.015642 -0.937960
vn -0.265068 0.223538 0.937960
vn -0.346389 0.015642 0.937960
vn 0.265068 -0.223538 0.937960
vn 0.346389 -0.015642 0.937960
vn -0.255995 0.233873 -0.937960
vn -0.345496 0.029367 -0.937960
vn 0.255995 -0.233873 -0.937960
vn 0.345496 -0.029367 -0.937960
vn -0.255995 0.233873 0.937960
vn -0.345496 0.029367 0.937960
vn 0.255995 -0.233873 0.937960
vn 0.345496 -0.029367 0.937960
vn -0.246519 0.243841 -0.937960
vn -0.344060 0.043045 -0.937960
vn 0.246519 -0.243841 -0.937960
vn 0.344060 -0.043045 -0.937960
vn -0.246519 0.243841 0.937960
vn -0.344060 0.043045 0.937960
vn 0.246519 -0.243841 0.937960
vn 0.344060 -0.043045 0.937960
vn -0.236655 0.253425 -0.937960
vn -0.342082 0.056655 -0.937960
vn 0.236655 -0.253425 -0.937960
vn 0.342082 -0.056655 -0.937960
vn -0.236655 0.253425 0.937960
vn -0.342082 0.056655 0.937960
vn 0.236655 -0.253425 0.937960
vn 0.342082 -0.056655 0.937960
vn -0.226419 0.262611 -0.937960
vn -0.339567 0.070176 -0.937960
vn 0.226419 -0.262611 -0.937960
vn 0.339567 -0.070176 -0.937960
vn -0.226419 0.262611 0.937960
vn -0.339567 0.070176 0.937960
vn 0.226419 -0.262611 0.937960
vn 0.339567 -0.070176 0.937960
vn -0.215827 0.271383 -0.937960
vn -0.336517 0.083587 -0.937960
vn 0.215827 -0.271383 -0.937960
vn 0.336517 -0.083587 -0.937960
vn -0.215827 0.271383 0.937960
vn -0.336517 0.083587 0.937960
vn 0.215827 -0.271383 0.937960
vn 0.336517 -0.083587 0.937960
vn -0.204895 0.279729 -0.937960
vn -0.332937 0.096866 -0.937960
vn 0.204895 -0.279729 -0.937960
vn 0.332937 -0.096866 -0.937960
vn -0.204895 0.279729 0.937960
vn -0.332937 0.096866 0.937960
vn 0.204895 -0.279729 0.937960
vn 0.332937 -0.096866 0.937960
vn -0.193641 0.287634 -0.937960
vn -0.328834 0.109993 -0.937960
vn 0.193641 -0.287634 -0.937960
vn 0.328834 -0.109993 -0.937960
vn -0.193641 0.287634 0.937960
vn -0.328834 0.109993 0.937960
vn 0.193641 -0.287634 0.937960
vn 0.328834 -0.109993 0.937960
vn -0.182082 0.295087 -0.937960
vn -0.324213 0.122946 -0.937960
vn 0.182082 -0.295087 -0.937960
vn 0.324213 -0.122946 -0.937960
vn -0.182082 0.295087 0.937960
vn -0.324213 0.122946 0.937960
vn 0.182082 -0.295087 0.937960
vn 0.324213 -0.122946 0.937960
vn -0.170237 0.302075 -0.937960
vn -0.319083 0.135707 -0.937960
vn 0.170237 -0.302075 -0.937960
vn 0.319083 -0.135707 -0.937960
vn -0.170237 0.302075 0.937960
vn -0.319083 0.135707 0.937960
vn 0.170237 -0.302075 0.937960
vn 0.319083 -0.135707 0.937960
vn -0.158124 0.308589 -0.937960
vn -0.313450 0.148254 -0.937960
vn 0.158124 -0.308589 -0.937960
vn 0.313450 -0.148254 -0.937960
vn -0.158124 0.308589 0.937960
vn -0.313450 0.148254 0.937960
vn 0.158124 -0.308589 0.937960
vn 0.313450 -0.148254 0.937960
vn -0.145762 0.314616 -0.937960
vn -0.307324 0.160567 -0.937960
vn 0.145762 -0.314616 -0.937960
vn 0.307324 -0.160567 -0.937960
vn -0.145762 0.314616 0.937960
vn -0.307324 0.160567 0.937960
vn 0.145762 -0.314616 0.937960
vn 0.307324 -0.160567 0.937960
vn -0.133171 0.320149 -0.937960
vn -0.300715 0.172628 -0.937960
vn 0.133171 -0.320149 -0.937960
vn 0.300715 -0.172628 -0.937960
vn -0.133171 0.320149 0.937960
vn -0.300715 0.172628 0.937960
vn 0.133171 -0.320149 0.937960
vn 0.300715 -0.172628 0.937960
vn -0.120371 0.325179 -0.937960
vn -0.293633 0.184418 -0.937960
vn 0.120371 -0.325179 -0.937960
vn 0.293633 -0.184418 -0.937960
vn -0.120371 0.325179 0.937960
vn -0.293633 0.184418 0.937960
vn 0.120371 -0.325179 0.937960
vn 0.293633 -0.184418 0.937960
vn -0.107381 0.329696 -0.937960
vn -0.286089 0.195917 -0.937960
vn 0.107381 -0.329696 -0.937960
vn 0.286089 -0.195917 -0.937960
vn -0.107381 0.329696 0.937960
vn -0.286089 0.195917 0.937960
vn 0.107381 -0.329696 0.937960
vn 0.286089 -0.195917 0.937960
vn -0.094222 0.333695 -0.937960
vn -0.278094 0.207108 -0.937960
vn 0.094222 -0.333695 -0.937960
vn 0.278094 -0.207108 -0.937960
vn -0.094222 0.333695 0.937960
vn -0.278094 0.207108 0.937960
vn 0.094222 -0.333695 0.937960
vn 0.278094 -0.207108 0.937960
vn -0.080914 0.337169 -0.937960
vn -0.269662 0.217973 -0.937960
vn 0.080914 -0.337169 -0.937960
vn 0.269662 -0.217973 -0.937960
vn -0.080914 0.337169 0.937960
vn -0.269662 0.217973 0.937960
vn 0.080914 -0.337169 0.937960
vn 0.269662 -0.217973 0.937960
vn -0.067480 0.340113 -0.937960
vn -0.260806 0.228496 -0.937960
vn 0.067480 -0.340113 -0.937960
vn 0.260806 -0.228496 -0.937960
vn -0.067480 0.340113 0.937960
vn -0.260806 0.228496 0.937960
vn 0.067480 -0.340113 0.937960
vn 0.260806 -0.228496 0.937960
vn -0.053939 0.342521 -0.937960
vn -0.251540 0.238658 -0.937960
vn 0.053939 -0.342521 -0.937960
vn 0.251540 -0.238658 -0.937960
vn -0.053939 0.342521 0.937960
vn -0.251540 0.238658 0.937960
vn 0.053939 -0.342521 0.937960
vn 0.251540 -0.238658 0.937960
vn -0.040314 0.344391 -0.937960
vn -0.241878 0.248446 -0.937960
vn 0.040314 -0.344391 -0.937960
vn 0.241878 -0.248446 -0.937960
vn -0.040314 0.344391 0.937960
vn -0.241878 0.248446 0.937960
vn 0.040314 -0.344391 0.937960
vn 0.241878 -0.248446 0.937960
vn -0.026625 0.345719 -0.937960
vn -0.231835 0.257842 -0.937960
vn 0.026625 -0.345719 -0.937960
vn 0.231835 -0.257842 -0.937960
vn -0.026625 0.345719 0.937960
vn -0.231835 0.257842 0.937960
vn 0.026625 -0.345719 0.937960
vn 0.231835 -0.257842 0.937960
vn -0.012894 0.346502 -0.937960
vn -0.221428 0.266833 -0.937960
vn 0.012894 -0.346502 -0.937960
vn 0.221428 -0.266833 -0.937960
vn -0.012894 0.346502 0.937960
vn -0.221428 0.266833 0.937960
vn 0.012894 -0.346502 0.937960
vn 0.221428 -0.266833 0.937960
vn 0.000857 0.346741 -0.937960
vn -0.210672 0.275404 -0.937960
vn -0.000857 -0.346741 -0.937960
vn 0.210672 -0.275404 -0.937960
vn 0.000857 0.346741 0.937960
vn -0.210672 0.275404 0.937960
vn -0.000857 -0.346741 0.937960
vn 0.210672 -0.275404 0.937960
vn 0.014607 0.346434 -0.937960
vn -0.199585 0.283542 -0.937960
vn -0.014607 -0.346434 -0.937960
vn 0.199585 -0.283542 -0.937960
vn 0.014607 0.346434 0.937960
vn -0.199585 0.283542 0.937960
vn -0.014607 -0.346434 0.937960
vn 0.199585 -0.283542 0.937960
vn 0.028334 0.345583 -0.937960
vn -0.188183 0.291234 -0.937960
vn -0.028334 -0.345583 -0.937960
vn 0.188183 -0.291234 -0.937960
vn 0.028334 0.345583 0.937960
vn -0.188183 0.291234 0.937960
vn -0.028334 -0.345583 0.937960
vn 0.188183 -0.291234 0.937960
vn 0.042016 0.344187 -0.937960
vn -0.176486 0.298467 -0.937960
vn -0.042016 -0.344187 -0.937960
vn 0.176486 -0.298467 -0.937960
vn 0.042016 0.344187 0.937960
vn -0.176486 0.298467 0.937960
vn -0.042016 -0.344187 0.937960
vn 0.176486 -0.298467 0.937960
vn 0.055632 0.342250 -0.937960
vn -0.164511 0.305231 -0.937960
vn -0.055632 -0.342250 -0.937960
vn 0.164511 -0.305231 -0.937960
vn 0.055632 0.342250 0.937960
vn -0.164511 0.305231 0.937960
vn -0.055632 -0.342250 0.937960
vn 0.164511 -0.305231 0.937960
vn 0.069161 0.339775 -0.937960
vn -0.152278 0.311515 -0.937960
vn -0.069161 -0.339775 -0.937960
vn 0.152278 -0.311515 -0.937960
vn 0.069161 0.339775 0.937960
vn -0.152278 0.311515 0.937960
vn -0.069161 -0.339775 0.937960
vn 0.152278 -0.311515 0.937960
vn 0.082580 0.336765 -0.937960
vn -0.139804 0.317309 -0.937960
vn -0.082580 -0.336765 -0.937960
vn 0.139804 -0.317309 -0.937960
vn 0.082580 0.336765 0.937960
vn -0.139804 0.317309 0.937960
vn -0.082580 -0.336765 0.937960
vn 0.139804 -0.317309 0.937960
vn 0.095870 0.333225 -0.937960
vn -0.127111 0.322603 -0.937960
vn -0.095870 -0.333225 -0.937960
vn 0.127111 -0.322603 -0.937960
vn 0.095870 0.333225 0.937960
vn -0.127111 0.322603 0.937960
vn -0.095870 -0.333225 0.937960
vn 0.127111 -0.322603 0.937960
vn 0.109009 0.329161 -0.937960
vn -0.114218 0.327390 -0.937960
vn -0.109009 -0.329161 -0.937960
vn 0.114218 -0.327390 -0.937960
vn 0.109009 0.329161 0.937960
vn -0.114218 0.327390 0.937960
vn -0.109009 -0.329161 0.937960
vn 0.114218 -0.327390 0.937960
vn 0.121977 0.324580 -0.937960
vn -0.101145 0.331662 -0.937960
vn -0.121977 -0.324580 -0.937960
vn 0.101145 -0.331662 -0.937960
vn 0.121977 0.324580 0.937960
vn -0.101145 0.331662 0.937960
vn -0.121977 -0.324580 0.937960
vn 0.101145 -0.331662 0.937960
vn 0.134752 0.319487 -0.937960
vn -0.087913 0.335412 -0.937960
vn -0.134752 -0.319487 -0.937960
vn 0.087913 -0.335412 -0.937960
vn 0.134752 0.319487 0.937960
vn -0.087913 0.335412 0.937960
vn -0.134752 -0.319487 0.937960
vn 0.087913 -0.335412 0.937960
vn 0.147316 0.313892 -0.937960
vn -0.074543 0.338635 -0.937960
vn -0.147316 -0.313892 -0.937960
vn 0.074543 -0.338635 -0.937960
vn 0.147316 0.313892 0.937960
vn -0.074543 0.338635 0.937960
vn -0.147316 -0.313892 0.937960
vn 0.074543 -0.338635 0.937960
vn 0.159648 0.307803 -0.937960
vn -0.061055 0.341325 -0.937960
vn -0.159648 -0.307803 -0.937960
vn 0.061055 -0.341325 -0.937960
vn 0.159648 0.307803 0.937960
vn -0.061055 0.341325 0.937960
vn -0.159648 -0.307803 0.937960
vn 0.061055 -0.341325 0.937960
vn 0.171729 0.301230 -0.937960
vn -0.047471 0.343477 -0.937960
vn -0.171729 -0.301230 -0.937960
vn 0.047471 -0.343477 -0.937960
vn 0.171729 0.301230 0.937960
vn -0.047471 0.343477 0.937960
vn -0.171729 -0.301230 0.937960
vn 0.047471 -0.343477 0.937960
vn 0.183539 0.294183 -0.937960
vn -0.033813 0.345090 -0.937960
vn -0.183539 -0.294183 -0.937960
vn 0.033813 -0.345090 -0.937960
vn 0.183539 0.294183 0.937960
vn -0.033813 0.345090 0.937960
vn -0.183539 -0.294183 0.937960
vn 0.033813 -0.345090 0.937960
vn 0.195061 0.286673 -0.937960
vn -0.020102 0.346159 -0.937960
vn -0.195061 -0.286673 -0.937960
vn 0.020102 -0.346159 -0.937960
vn 0.195061 0.286673 0.937960
vn -0.020102 0.346159 0.937960
vn -0.195061 -0.286673 0.937960
vn 0.020102 -0.346159 0.937960
vn 0.206276 0.278712 -0.937960
vn -0.006358 0.346684 -0.937960
vn -0.206276 -0.278712 -0.937960
vn 0.006358 -0.346684 -0.937960
vn 0.206276 0.278712 0.937960
vn -0.006358 0.346684 0.937960
vn -0.206276 -0.278712 0.937960
vn 0.006358 -0.346684 0.937960
vn 0.217166 0.270313 -0.937960
vn 0.007395 0.346663 -0.937960
vn -0.217166 -0.270313 -0.937960
vn -0.007395 -0.346663 -0.937960
vn 0.217166 0.270313 0.937960
vn 0.007395 0.346663 0.937960
vn -0.217166 -0.270313 0.937960
vn -0.007395 -0.346663 0.937960
vn 0.227715 0.261488 -0.937960
vn 0.021136 0.346097 -0.937960
vn -0.227715 -0.261488 -0.937960
vn -0.021136 -0.346097 -0.937960
vn 0.227715 0.261488 0.937960
vn 0.021136 0.346097 0.937960
vn -0.227715 -0.261488 0.937960
vn -0.021136 -0.346097 0.937960
vn 0.237905 0.252252 -0.937960
vn 0.034845 0.344987 -0.937960
vn -0.237905 -0.252252 -0.937960
vn -0.034845 -0.344987 -0.937960
vn 0.237905 0.252252 0.937960
vn 0.034845 0.344987 0.937960
vn -0.237905 -0.252252 0.937960
vn -0.034845 -0.344987 0.937960
vn 0.247722 0.242619 -0.937960
vn 0.048498 0.343334 -0.937960
vn -0.247722 -0.242619 -0.937960
vn -0.048498 -0.343334 -0.937960
vn 0.247722 0.242619 0.937960
vn 0.048498 0.343334 0.937960
vn -0.247722 -0.242619 0.937960
vn -0.048498 -0.343334 0.937960
vn 0.257148 0.232605 -0.937960
vn 0.062075 0.341140 -0.937960
vn -0.257148 -0.232605 -0.937960
vn -0.062075 -0.341140 -0.937960
vn 0.257148 0.232605 0.937960
vn 0.062075 0.341140 0.937960
vn -0.257148 -0.232605 0.937960
vn -0.062075 -0.341140 0.937960
vn 0.266170 0.222224 -0.937960
vn 0.075555 0.338410 -0.937960
vn -0.266170 -0.222224 -0.937960
vn -0.075555 -0.338410 -0.937960
vn 0.266170 0.222224 0.937960
vn 0.075555 0.338410 0.937960
vn -0.266170 -0.222224 0.937960
vn -0.075555 -0.338410 0.937960
vn 0.274773 0.211494 -0.937960
vn 0.088915 0.335148 -0.937960
vn -0.274773 -0.211494 -0.937960
vn -0.088915 -0.335148 -0.937960
vn 0.274773 0.211494 0.937960
vn 0.088915 0.335148 0.937960
vn -0.274773 -0.211494 0.937960
vn -0.088915 -0.335148 0.937960
vn 0.282944 0.200431 -0.937960
vn 0.102136 0.331358 -0.937960
vn -0.282944 -0.200431 -0.937960
vn -0.102136 -0.331358 -0.937960
vn 0.282944 0.200431 0.937960
vn 0.102136 0.331358 0.937960
vn -0.282944 -0.200431 0.937960
vn -0.102136 -0.331358 0.937960
vn 0.290670 0.189053 -0.937960
vn 0.115196 0.327047 -0.937960
vn -0.290670 -0.189053 -0.937960
vn -0.115196 -0.327047 -0.937960
vn 0.290670 0.189053 0.937960
vn 0.115196 0.327047 0.937960
vn -0.290670 -0.189053 0.937960
vn -0.115196 -0.327047 0.937960
vn 0.297938 0.177378 -0.937960
vn 0.128075 0.322222 -0.937960
vn -0.297938 -0.177378 -0.937960
vn -0.128075 -0.322222 -0.937960
vn 0.297938 0.177378 0.937960
vn 0.128075 0.322222 0.937960
vn -0.297938 -0.177378 0.937960
vn -0.128075 -0.322222 0.937960
vn 0.304738 0.165423 -0.937960
vn 0.140752 0.316890 -0.937960
vn -0.304738 -0.165423 -0.937960
vn -0.140752 -0.316890 -0.937960
vn 0.304738 0.165423 0.937960
vn 0.140752 0.316890 0.937960
vn -0.304738 -0.165423 0.937960
vn -0.140752 -0.316890 0.937960
vn 0.311059 0.153208 -0.937960
vn 0.153208 0.311059 -0.937960
vn -0.311059 -0.153208 -0.937960
vn -0.153208 -0.311059 -0.937960
vn 0.311059 0.153208 0.937960
vn 0.153208 0.311059 0.937960
vn -0.311059 -0.153208 0.937960
vn -0.153208 -0.311059 0.937960
f 4//4 3//3 2//2 1//1
f 5//5 6//6 7//7 8//8
f 3//3 4//4 8//8 7//7
f 1//1 2//2 6//6 5//5
f 4//4 1//1 5//5 8//8
f 2//2 3//3 7//7 6//6
f 12//12 11//11 10//10 9//9
f 13//13 14//14 15//15 16//16
f 11//11 12//12 16//16 15//15
f 9//9 10//10 14//14 13//13
f 12//12 9//9 13//13 16//16
f 10//10 11//11 15//15 14//14
f 20//20 19//19 18//18 17//17
f 21//21 22//22 23//23 24//24
f 19//19 20//20 24//24 23//23
f 17//17 18//18 22//22 21//21
f 20//20 17//17 21//21 24//24
f 18//18 19//19 23//23 22//22
f 28//28 27//27 26//26 25//25
f 29//29 30//30 31//31 32//32
f 27//27 28//28 32//32 31//31
f 25//25 26//26 30//30 29//29
f 28//28 25//25 29//29 32//32
f 26//26 27//27 31//31 30//30
f 36//36 35//35 34//34 33//33
f 37//37 38//38 39//39 40//40
f 35//35 36//36 40//40 39//39
f 33//33 34//34 38//38 37//37
f 36//36 33//33 37//37 40//40
f 34//34 35//35 39//39 38//38
f 44//44 43//43 42//42 41//41
f 45//45 46//46 47//47 48//48
f 43//43 44//44 48//48 47//47
f 41//41 42//42 46//46 45//45
f 44//44 41//41 45//45 48//48
f 42//42 43//43 47//47 46//46
f 52//52 51//51 50//50 49//49
f 53//53 54//54 55//55 56//56
f 51//51 52//52 56//56 55//55
f 49//49 50//50 54//54 53//53
f 52//52 49//49 53//53 56//56
f 50//50 51//51 55//55 54//54
f 60//60 59//59 58//58 57//57
f 61//61 62//62 63//63 64//64
f 59//59 60//60 64//64 63//63
f 57//57 58//58 62//62 61//61
f 60//60 57//57 61//61 64//64
f 58//58 59//59 63//63 62//62
f 68//68 67//67 66//66 65//65
f 69//69 70//70 71//71 72//72
f 67//67 68//68 72//72 71//71
f 65//65 66//66 70//70 69//69
f 68//68 65//65 69//69 72//72
f 66//66 67//67 71//71 70//70
f 76//76 75//75 74//74 73//73
f 77//77 78//78 79//79 80//80
f 75//75 76//76 80//80 79//79
f 73//73 74//74 78//78 77//77
f 76//76 73//73 77//77 80//80
f 74//74 75//75 79//79 78//78
f 84//84 83//83 82//82 81//81
f 85//85 86//86 87//87 88//88
f 83//83 84//84 88//88 87//87
f 81//81 82//82 86//86 85//85
f 84//84 81//81 85//85 88//88
f 82//82 83//83 87//87 86//86
f 92//92 91//91 90//90 89//89
f 93//93 94//94 95//95 96//96
f 91//91 92//92 96//96 95//95
f 89//89 90//90 94//94 93//93
f 92//92 89//89 93//93 96//96
f 90//90 91//91 95//95 94//94
f 100//100 99//99 98//98 97//97
f 101//101 102//102 103//103 104//104
f 99//99 100//100 104//104 103//103
f 97//97 98//98 102//102 101//101
f 100//100 97//97 101//101 104//104
f 98//98 99//99 103//103 102//102
f 108//108 107//107 106//106 105//105
f 109//109 110//110 111//111 112//112
f 107//107 108//108 112//112 111//111
f 105//105 106//106 110//110 109//109
f 108//108 105//105 109//109 112//112
f 106//106 107//107 111//111 110//110
f 116//116 115//115 114//114 113//113
f 117//117 118//118 119//119 120//120
f 115//115 116//116 120//120 119//119
f 113//113 114//114 118//118 117//117
f 116//116 113//113 117//117 120//120
f 114//114 115//115 119//119 118//118
f 124//124 123//123 122//122 121//121
f 125//125 126//126 127//127 128//128
f 123//123 124//124 128//128 127//127
f 121//121 122//122 126//126 125//125
f 124//124 121//121 125//125 128//128
f 122//122 123//123 127//127 126//126
f 132//132 131//131 130//130 129//129
f 133//133 134//134 135//135 136//136
f 131//131 132//132 136//136 135//135
f 129//129 130//130 134//134 133//133
f 132//132 129//129 133//133 136//136
f 130//130 131//131 135//135 134//134
f 140//140 139//139 138//138 137//137
f 141//141 142//142 143//143 144//144
f 139//139 140//140 144//144 143//143
f 137//137 138//138 142//142 141//141
f 140//140 137//137 141//141 144//144
f 138//138 139//139 143//143 142//142
f 148//148 147//147 146//146 145//145
f 149//149 150//150 151//151 152//152
f 147//147 148//148 152//152 151//151
f 145//145 146//146 150//150 149//149
f 148//148 145//145 149//149 152//152
f 146//146 147//147 151//151 150//150
f 156//156 155//155 154//154 153//153
f 157//157 158//158 159//159 160//160
f 155//155 156//156 160//160 159//159
f 153//153 154//154 158//158 157//157
f 156//156 153//153 157//157 160//160
f 154//154 155//155 159//159 158//158
f 164//164 163//163 162//162 161//161
f 165//165 166//166 167//167 168//168
f 163//163 164//164 168//168 167//167
f 161//161 162//162 166//166 165//165
f 164//164 161//161 165//165 168//168
f 162//162 163//163 167//167 166//166
f 172//172 171//171 170//170 169//169
f 173//173 174//174 175//175 176//176
f 171//171 172//172 176//176 175//175
f 169//169 170//170 174//174 173//173
f 172//172 169//169 173//173 176//176
f 170//170 171//171 175//175 174//174
f 180//180 179//179 178//178 177//177
f 181//181 182//182 183//183 184//184
f 179//179 180//180 184//184 183//183
f 177//177 178//178 182//182 181//181
f 180//180 177//177 181//181 184//184
f 178//178 179//179 183//183 182//182
f 188//188 187//187 186//186 185//185
f 189//189 190//190 191//191 192//192
f 187//187 188//188 192//192 191//191
f 185//185 186//186 190//190 189//189
f 188//188 185//185 189//189 192//192
f 186//186 187//187 191//191 190//190
f 196//196 195//195 194//194 193//193
f 197//197 198//198 199//199 200//200
f 195//195 196//196 200//200 199//199
f 193//193 194//194 198//198 197//197
f 196//196 193//193 197//197 200//200
f 194//194 195//195 199//199 198//198
f 204//204 203//203 202//202 201//201
f 205//205 206//206 207//207 208//208
f 203//203 204//204 208//208 207//207
f 201//201 202//202 206//206 205//205
f 204//204 201//201 205//205 208//208
f 202//202 203//203 207//207 206//206
f 212//212 211//211 210//210 209//209
f 213//213 214//214 215//215 216//216
f 211//211 212//212 216//216 215//215
f 209//209 210//210 214//214 213//213
f 212//212 209//209 213//213 216//216
f 210//210 211//211 215//215 214//214
f 220//220 219//219 218//218 217//217
f 221//221 222//222 223//223 224//224
f 219//219 220//220 224//224 223//223
f 217//217 218//218 222//222 221//221
f 220//220 217//217 221//221 224//224
f 218//218 219//219 223//223 222//222
f 228//228 227//227 226//226 225//225
f 229//229 230//230 231//231 232//232
f 227//227 228//228 232//232 231//231
f 225//225 226//226 230//230 229//229
f 228//228 225//225 229//229 232//232
f 226//226 227//227 231//231 230//230
f 236//236 235//235 234//234 233//233
f 237//237 238//238 239//239 240//240
f 235//235 236//236 240//240 239//239
f 233//233 234//234 238//238 237//237
f 236//236 233//233 237//237 240//240
f 234//234 235//235 239//239 238//238
f 244//244 243//243 242//242 241//241
f 245//245 246//246 247//247 248//248
f 243//243 244//244 248//248 247//247
f 241//241 242//242 246//246 245//245
f 244//244 241//241 245//245 248//248
f 242//242 243//243 247//247 246//246
f 252//252 251//251 250//250 249//249
f 253//253 254//254 255//255 256//256
f 251//251 252//252 256//256 255//255
f 249//249 250//250 254//254 253//253
f 252//252 249//249 253//253 256//256
f 250//250 251//251 255//255 254//254
f 260//260 259//259 258//258 257//257
f 261//261 262//262 263//263 264//264
f 259//259 260//260 264//264 263//263
f 257//257 258//258 262//262 261//261
f 260//260 257//257 261//261 264//264
f 258//258 259//259 263//263 262//262
f 268//268 267//267 266//266 265//265
f 269//269 270//270 271//271 272//272
f 267//267 268//268 272//272 271//271
f 265//265 266//266 270//270 269//269
f 268//268 265//265 269//269 272//272
f 266//266 267//267 271//271 270//270
f 276//276 275//275 274//274 273//273
f 277//277 278//278 279//279 280//280
f 275//275 276//276 280//280 279//279
f 273//273 274//274 278//278 277//277
f 276//276 273//273 277//277 280//280
f 274//274 275//275 279//279 278//278
f 284//284 283//283 282//282 281//281
f 285//285 286//286 287//287 288//288
f 283//283 284//284 288//288 287//287
f 281//281 282//282 286//286 285//285
f 284//284 281//281 285//285 288//288
f 282//282 283//283 287//287 286//286
f 292//292 291//291 290//290 289//289
f 293//293 294//294 295//295 296//296
f 291//291 292//292 296//296 295//295
f 289//289 290//290 294//294 293//293
f 292//292 289//289 293//293 296//296
f 290//290 291//291 295//295 294//294
f 300//300 299//299 298//298 297//297
f 301//301 302//302 303//303 304//304
f 299//299 300//300 304//304 303//303
f 297//297 298//298 302//302 301//301
f 300//300 297//297 301//301 304//304
f 298//298 299//299 303//303 302//302
f 308//308 307//307 306//306 305//305
f 309//309 310//310 311//311 312//312
f 307//307 308//308 312//312 311//311
f 305//305 306//306 310//310 309//309
f 308//308 305//305 309//309 312//312
f 306//306 307//307 311//311 310//310
f 316//316 315//315 314//314 313//313
f 317//317 318//318 319//319 320//320
f 315//315 316//316 320//320 319//319
f 313//313 314//314 318//318 317//317
f 316//316 313//313 317//317 320//320
f 314//314 315//315 319//319 318//318
f 324//324 323//323 322//322 321//321
f 325//325 326//326 327//327 328//328
f 323//323 324//324 328//328 327//327
f 321//321 322//322 326//326 325//325
f 324//324 321//321 325//325 328//328
f 322//322 323//323 327//327 326//326
f 332//332 331//331 330//330 329//329
f 333//333 334//334 335//335 336//336
f 331//331 332//332 336//336 335//335
f 329//329 330//330 334//334 333//333
f 332//332 329//329 333//333 336//336
f 330//330 331//331 335//335 334//334
f 340//340 339//339 338//338 337//337
f 341//341 342//342 343//343 344//344
f 339//339 340//340 344//344 343//343
f 337//337 338//338 342//342 341//341
f 340//340 337//337 341//341 344//344
f 338//338 339//339 343//343 342//342
f 348//348 347//347 346//346 345//345
f 349//349 350//350 351//351 352//352
f 347//347 348//348 352//352 351//351
f 345//345 346//346 350//350 349//349
f 348//348 345//345 349//349 352//352
f 346//346 347//347 351//351 350//350
f 356//356 355//355 354//354 353//353
f 357//357 358//358 359//359 360//360
f 355//355 356//356 360//360 359//359
f 353//353 354//354 358//358 357//357
f 356//356 353//353 357//357 360//360
f 354//354 355//355 359//359 358//358
f 364//364 363//363 362//362 361//361
f 365//365 366//366 367//367 368//368
f 363//363 364//364 368//368 367//367
f 361//361 362//362 366//366 365//365
f 364//364 361//361 365//365 368//368
f 362//362 363//363 367//367 366//366
f 372//372 371//371 370//370 369//369
f 373//373 374//374 375//375 376//376
f 371//371 372//372 376//376 375//375
f 369//369 370//370 374//374 373//373
f 372//372 369//369 373//373 376//376
f 370//370 371//371 375//375 374//374
f 380//380 379//379 378//378 377//377
f 381//381 382//382 383//383 384//384
f 379//379 380//380 384//384 383//383
f 377//377 378//378 382//382 381//381
f 380//380 377//377 381//381 384//384
f 378//378 379//379 383//383 382//382
f 388//388 387//387 386//386 385//385
f 389//389 390//390 391//391 392//392
f 387//387 388//388 392//392 391//391
f 385//385 386//386 390//390 389//389
f 388//388 385//385 389//389 392//392
f 386//386 387//387 391//391 390//390
f 396//396 395//395 394//394 393//393
f 397//397 398//398 399//399 400//400
f 395//395 396//396 400//400 399//399
f 393//393 394//394 398//398 397//397
f 396//396 393//393 397//397 400//400
f 394//394 395//395 399//399 398//398
f 404//404 403//403 402//402 401//401
f 405//405 406//406 407//407 408//408
f 403//403 404//404 408//408 407//407
f 401//401 402//402 406//406 405//405
f 404//404 401//401 405//405 408//408
f 402//402 403//403 407//407 406//406
f 412//412 411//411 410//410 409//409
f 413//413 414//414 415//415 416//416
f 411//411 412//412 416//416 415//415
f 409//409 410//410 414//414 413//413
f 412//412 409//409 413//413 416//416
f 410//410 411//411 415//415 414//414
f 420//420 419//419 418//418 417//417
f 421//421 422//422 423//423 424//424
f 419//419 420//420 424//424 423//423
f 417//417 418//418 422//422 421//421
f 420//420 417//417 421//421 424//424
f 418//418 419//419 423//423 422//422
f 428//428 427//427 426//426 425//425
f 429//429 430//430 431//431 432//432
f 427//427 428//428 432//432 431//431
f 425//425 426//426 430//430 429//429
f 428//428 425//425 429//429 432//432
f 426//426 427//427 431//431 430//430
f 436//436 435//435 434//434 433//433
f 437//437 438//438 439//439 440//440
f 435//435 436//436 440//440 439//439
f 433//433 434//434 438//438 437//437
f 436//436 433//433 437//437 440//440
f 434//434 435//435 439//439 438//438
f 444//444 443//443 442//442 441//441
f 445//445 446//446 447//447 448//448
f 443//443 444//444 448//448 447//447
f 441//441 442//442 446//446 445//445
f 444//444 441//441 445//445 448//448
f 442//442 443//443 447//447 446//446
f 452//452 451//451 450//450 449//449
f 453//453 454//454 455//455 456//456
f 451//451 452//452 456//456 455//455
f 449//449 450//450 454//454 453//453
f 452//452 449//449 453//453 456//456
f 450//450 451//451 455//455 454//454
f 460//460 459//459 458//458 457//457
f 461//461 462//462 463//463 464//464
f 459//459 460//460 464//464 463//463
f 457//457 458//458 462//462 461//461
f 460//460 457//457 461//461 464//464
f 458//458 459//459 463//463 462//462
f 468//468 467//467 466//466 465//465
f 469//469 470//470 471//471 472//472
f 467//467 468//468 472//472 471//471
f 465//465 466//466 470//470 469//469
f 468//468 465//465 469//469 472//472
f 466//466 467//467 471//471 470//470
f 476//476 475//475 474//474 473//473
f 477//477 478//478 479//479 480//480
f 475//475 476//476 480//480 479//479
f 473//473 474//474 478//478 477//477
f 476//476 473//473 477//477 480//480
f 474//474 475//475 479//479 478//478
f 484//484 483//483 482//482 481//481
f 485//485 486//486 487//487 488//488
f 483//483 484//484 488//488 487//487
f 481//481 482//482 486//486 485//485
f 484//484 481//481 485//485 488//488
f 482//482 483//483 487//487 486//486
f 492//492 491//491 490//490 489//489
f 493//493 494//494 495//495 496//496
f 491//491 492//492 496//496 495//495
f 489//489 490//490 494//494 493//493
f 492//492 489//489 493//493 496//496
f 490//490 491//491 495//495 494//494
f 500//500 499//499 498//498 497//497
f 501//501 502//502 503//503 504//504
f 499//499 500//500 504//504 503//503
f 497//497 498//498 502//502 501//501
f 500//500 497//497 501//501 504//504
f 498//498 499//499 503//503 502//502
f 508//508 507//507 506//506 505//505
f 509//509 510//510 511//511 512//512
f 507//507 508//508 512//512 511//511
f 505//505 506//506 510//510 509//509
f 508//508 505//505 509//509 512//512
f 506//506 507//507 511//511 510//510
f 516//516 515//515 514//514 513//513
f 517//517 518//518 519//519 520//520
f 515//515 516//516 520//520 519//519
f 513//513 514//514 518//518 517//517
f 516//516 513//513 517//517 520//520
f 514//514 515//515 519//519 518//518
f 524//524 523//523 522//522 521//521
f 525//525 526//526 527//527 528//528
f 523//523 524//524 528//528 527//527
f 521//521 522//522 526//526 525//525
f 524//524 521//521 525//525 528//528
f 522//522 523//523 527//527 526//526
f 532//532 531//531 530//530 529//529
f 533//533 534//534 535//535 536//536
f 531//531 532//532 536//536 535//535
f 529//529 530//530 534//534 533//533
f 532//532 529//529 533//533 536//536
f 530//530 531//531 535//535 534//534
f 540//540 539//539 538//538 537//537
f 541//541 542//542 543//543 544//544
f 539//539 540//540 544//544 543//543
f 537//537 538//538 542//542 541//541
f 540//540 537//537 541//541 544//544
f 538//538 539//539 543//543 542//542
f 548//548 547//547 546//546 545//545
f 549//549 550//550 551//551 552//552
f 547//547 548//548 552//552 551//551
f 545//545 546//546 550//550 549//549
f 548//548 545//545 549//549 552//552
f 546//546 547//547 551//551 550//550
f 556//556 555//555 554//554 553//553
f 557//557 558//558 559//559 560//560
f 555//555 556//556 560//560 559//559
f 553//553 554//554 558//558 557//557
f 556//556 553//553 557//557 560//560
f 554//554 555//555 559//559 558//558
f 564//564 563//563 562//562 561//561
f 565//565 566//566 567//567 568//568
f 563//563 564//564 568//568 567//567
f 561//561 562//562 566//566 565//565
f 564//564 561//561 565//565 568//568
f 562//562 563//563 567//567 566//566
f 572//572 571//571 570//570 569//569
f 573//573 574//574 575//575 576//576
f 571//571 572//572 576//576 575//575
f 569//569 570//570 574//574 573//573
f 572//572 569//569 573//573 576//576
f 570//570 571//571 575//575 574//574
f 580//580 579//579 578//578 577//577
f 581//581 582//582 583//583 584//584
f 579//579 580//580 584//584 583//583
f 577//577 578//578 582//582 581//581
f 580//580 577//577 581//581 584//584
f 578//578 579//579 583//583 582//582
f 588//588 587//587 586//586 585//585
f 589//589 590//590 591//591 592//592
f 587//587 588//588 592//592 591//591
f 585//585 586//586 590//590 589//589
f 588//588 585//585 589//589 592//592
f 586//586 587//587 591//591 590//590
f 596//596 595//595 594//594 593//593
f 597//597 598//598 599//599 600//600
f 595//595 596//596 600//600 599//599
f 593//593 594//594 598//598 597//597
f 596//596 593//593 597//597 600//600
f 594//594 595//595 599//599 598//598
f 604//604 603//603 602//602 601//601
f 605//605 606//606 607//607 608//608
f 603//603 604//604 608//608 607//607
f 601//601 602//602 606//606 605//605
f 604//604 601//601 605//605 608//608
f 602//602 603//603 607//607 606//606
f 612//612 611//611 610//610 609//609
f 613//613 614//614 615//615 616//616
f 611//611 612//612 616//616 615//615
f 609//609 610//610 614//614 613//613
f 612//612 609//609 613//613 616//616
f 610//610 611//611 615//615 614//614
f 620//620 619//619 618//618 617//617
f 621//621 622//622 623//623 624//624
f 619//619 620//620 624//624 623//623
f 617//617 618//618 622//622 621//621
f 620//620 617//617 621//621 624//624
f 618//618 619//619 623//623 622//622
f 628//628 627//627 626//626 625//625
f 629//629 630//630 631//631 632//632
f 627//627 628//628 632//632 631//631
f 625//625 626//626 630//630 629//629
f 628//628 625//625 629//629 632//632
f 626//626 627//627 631//631 630//630
f 636//636 635//635 634//634 633//633
f 637//637 638//638 639//639 640//640
f 635//635 636//636 640//640 639//639
f 633//633 634//634 638//638 637//637
f 636//636 633//633 637//637 640//640
f 634//634 635//635 639//639 638//638
f 644//644 643//643 642//642 641//641
f 645//645 646//646 647//647 648//648
f 643//643 644//644 648//648 647//647
f 641//641 642//642 646//646 645//645
f 644//644 641//641 645//645 648//648
f 642//642 643//643 647//647 646//646
f 652//652 651//651 650//650 649//649
f 653//653 654//654 655//655 656//656
f 651//651 652//652 656//656 655//655
f 649//649 650//650 654//654 653//653
f 652//652 649//649 653//653 656//656
f 650//650 651//651 655//655 654//654
f 660//660 659//659 658//658 657//657
f 661//661 662//662 663//663 664//664
f 659//659 660//660 664//664 663//663
f 657//657 658//658 662//662 661//661
f 660//660 657//657 661//661 664//664
f 658//658 659//659 663//663 662//662
f 668//668 667//667 666//666 665//665
f 669//669 670//670 671//671 672//672
f 667//667 668//668 672//672 671//671
f 665//665 666//666 670//670 669//669
f 668//668 665//665 669//669 672//672
f 666//666 667//667 671//671 670//670
f 676//676 675//675 674//674 673//673
f 677//677 678//678 679//679 680//680
f 675//675 676//676 680//680 679//679
f 673//673 674//674 678//678 677//677
f 676//676 673//673 677//677 680//680
f 674//674 675//675 679//679 678//678
f 684//684 683//683 682//682 681//681
f 685//685 686//686 687//687 688//688
f 683//683 684//684 688//688 687//687
f 681//681 682//682 686//686 685//685
f 684//684 681//681 685//685 688//688
f 682//682 683//683 687//687 686//686
f 692//692 691//691 690//690 689//689
f 693//693 694//694 695//695 696//696
f 691//691 692//692 696//696 695//695
f 689//689 690//690 694//694 693//693
f 692//692 689//689 693//693 696//696
f 690//690 691//691 695//695 694//694
f 700//700 699//699 698//698 697//697
f 701//701 702//702 703//703 704//704
f 699//699 700//700 704//704 703//703
f 697//697 698//698 702//702 701//701
f 700//700 697//697 701//701 704//704
f 698//698 699//699 703//703 702//702
f 708//708 707//707 706//706 705//705
f 709//709 710//710 711//711 712//712
f 707//707 708//708 712//712 711//711
f 705//705 706//706 710//710 709//709
f 708//708 705//705 709//709 712//712
f 706//706 707//707 711//711 710//710
f 716//716 715//715 714//714 713//713
f 717//717 718//718 719//719 720//720
f 715//715 716//716 720//720 719//719
f 713//713 714//714 718//718 717//717
f 716//716 713//713 717//717 720//720
f 714//714 715//715 719//719 718//718
f 724//724 723//723 722//722 721//721
f 725//725 726//726 727//727 728//728
f 723//723 724//724 728//728 727//727
f 721//721 722//722 726//726 725//725
f 724//724 721//721 725//725 728//728
f 722//722 723//723 727//727 726//726
f 732//732 731//731 730//730 729//729
f 733//733 734//734 735//735 736//736
f 731//731 732//732 736//736 735//735
f 729//729 730//730 734//734 733//733
f 732//732 729//729 733//733 736//736
f 730//730 731//731 735//735 734//734
f 740//740 739//739 738//738 737//737
f 741//741 742//742 743//743 744//744
f 739//739 740//740 744//744 743//743
f 737//737 738//738 742//742 741//741
f 740//740 737//737 741//741 744//744
f 738//738 739//739 743//743 742//742
f 748//748 747//747 746//746 745//745
f 749//749 750//750 751//751 752//752
f 747//747 748//748 752//752 751//751
f 745//745 746//746 750//750 749//749
f 748//748 745//745 749//749 752//752
f 746//746 747//747 751//751 750//750
f 756//756 755//755 754//754 753//753
f 757//757 758//758 759//759 760//760
f 755//755 756//756 760//760 759//759
f 753//753 754//754 758//758 757//757
f 756//756 753//753 757//757 760//760
f 754//754 755//755 759//759 758//758
f 764//764 763//763 762//762 761//761
f 765//765 766//766 767//767 768//768
f 763//763 764//764 768//768 767//767
f 761//761 762//762 766//766 765//765
f 764//764 761//761 765//765 768//768
f 762//762 763//763 767//767 766//766
f 772//772 771//771 770//770 769//769
f 773//773 774//774 775//775 776//776
f 771//771 772//772 776//776 775//775
f 769//769 770//770 774//774 773//773
f 772//772 769//769 773//773 776//776
f 770//770 771//771 775//775 774//774
f 780//780 779//779 778//778 777//777
f 781//781 782//782 783//783 784//784
f 779//779 780//780 784//784 783//783
f 777//777 778//778 782//782 781//781
f 780//780 777//777 781//781 784//784
f 778//778 779//779 783//783 782//782
f 788//788 787//787 786//786 785//785
f 789//789 790//790 791//791 792//792
f 787//787 788//788 792//792 791//791
f 785//785 786//786 790//790 789//789
f 788//788 785//785 789//789 792//792
f 786//786 787//787 791//791 790//790
f 796//796 795//795 794//794 793//793
f 797//797 798//798 799//799 800//800
f 795//795 796//796 800//800 799//799
f 793//793 794//794 798//798 797//797
f 796//796 793//793 797//797 800//800
f 794//794 795//795 799//799 798//798
f 804//804 803//803 802//802 801//801
f 805//805 806//806 807//807 808//808
f 803//803 804//804 808//808 807//807
f 801//801 802//802 806//806 805//805
f 804//804 801//801 805//805 808//808
f 802//802 803//803 807//807 806//806
f 812//812 811//811 810//810 809//809
f 813//813 814//814 815//815 816//816
f 811//811 812//812 816//816 815//815
f 809//809 810//810 814//814 813//813
f 812//812 809//809 813//813 816//816
f 810//810 811//811 815//815 814//814
f 820//820 819//819 818//818 817//817
f 821//821 822//822 823//823 824//824
f 819//819 820//820 824//824 823//823
f 817//817 818//818 822//822 821//821
f 820//820 817//817 821//821 824//824
f 818//818 819//819 823//823 822//822
